<svg version="1.1" id="Layer_1" xmlns="http://www.w3.org/2000/svg" x="0" y="0" viewBox="0 0 155 64" width="155" height="64" xml:space="preserve"><style>.st0{fill-rule:evenodd;clip-rule:evenodd;fill:#fff}</style><path class="st0" d="M71.5 6.1c0-2.4 1.1-4.1 3.3-4.1H77c1.9 0 3.3 1.3 3.3 4.1v4.4c0 1.9.9 4 2.8 4 2.1 0 4-1.5 7.8-1.5 8.3 0 14.3 5.9 14.3 16.7 0 12.6-6.4 18.7-14.7 18.7-5 0-5.2-1.7-8.4-1.7s-2.9.9-6 .9c-3.5 0-4.5-1.1-4.5-5.3l-.1-36.2zm16.7 36c4.3 0 8-3.5 8-10.7 0-6.8-2.4-12-7.8-12-4.2 0-8 3.3-8 11.1 0 7.7 3.3 11.6 7.8 11.6zM137 31.6h-13.9c-3.1 0-4.7 1.2-4.7 3.5 0 2.9 3.5 6.2 7 6.2 5.8 0 6.7-4.7 10.2-4.7 2.1 0 4.5 1.9 4.5 3.5 0 2.1-4.8 8.2-14.8 8.2-9.8 0-17.1-6-17.1-17.4 0-13.6 8.3-18.9 17-18.9 14.6 0 16.5 13.1 16.5 15.8-.1 3-1.5 3.8-4.7 3.8zm-12.6-5.4c4.4 0 6.7-.9 6.7-2.8 0-2.1-2.8-4.5-6-4.5-2.7 0-6.2 1.9-6.2 4.3.1 1.9 1.9 3 5.5 3zM148.7 48.2c-5.5 0-6-3.1-6-6 0-4.5 1.3-6.3 5.9-6.3 5.5 0 6 2.8 6 6 0 4.9-2 6.3-5.9 6.3zM15.2 24.1V43c0 3.1-1.5 4.7-4.9 4.7-3.6 0-5.2-1.2-5.2-4.7V24.7c0-6.4-5.1-5.2-5.1-8.6 0-2.3 1.9-2.8 3.9-4.6.8-.5.8-1.7 1.9-5.5.5-2 2.7-6 8.6-6h2.5c2.7 0 4.7 1.6 4.7 3.5 0 1.5.3 3.1-2 4.3-2.1 1.2-2.8 1.9-2.8 2.8 0 1.1.4 1.6 2.4 2.5 1.5.7 2.1 1.9 2.1 2.9 0 2.4-3.4 3.2-4.4 4-1 .7-1.7 2.2-1.7 4.1zM35.2 5.2v38.2c0 2.8-1.6 4.3-4.9 4.3-4 0-5.5-1.5-5.5-5V4.5c0-2.4 1.6-4.3 4-4.3h2.1c2.8 0 4.3 1.6 4.3 5zM41.2 13.1h2.4c2.3 0 3.6 1.5 4.3 4.3l2.7 12.3c.7 3.3 1.6 4 2.7 4 1.3 0 2.1-2.1 2.5-4.2l2.8-13c.5-2.3 2.1-3.5 4.7-3.5h2.3c1.6 0 2.9 1.1 2.9 2.4 0 .9-.1 1.6-.3 2.1L57.7 49.8c-2.7 8.3-7 9.5-10.8 9.5h-3.3c-2.1 0-3.6-1.3-3.6-3.6 0-2.1 1.5-3.2 3.9-3.8 2.5-.5 3.9-2.3 3.9-4.1 0-2.3-8.4-27.1-8.8-28.6-1.8-5.4.4-6.1 2.2-6.1zM77.2 63.1c-5.5 0-6-3.1-6-6 0-4.6 1.3-6.3 5.9-6.3 5.5 0 6 2.8 6 6 0 5-2.1 6.3-5.9 6.3zM91.5 63.1c-5.5 0-6-3.1-6-6 0-4.6 1.3-6.3 5.9-6.3 5.5 0 6 2.8 6 6-.1 5-2.1 6.3-5.9 6.3zM105.8 63.1c-5.5 0-6-3.1-6-6 0-4.6 1.3-6.3 5.9-6.3 5.5 0 6 2.8 6 6 0 5-2 6.3-5.9 6.3zM120.1 63.1c-5.5 0-6-3.1-6-6 0-4.6 1.3-6.3 5.9-6.3 5.5 0 6 2.8 6 6 0 5-2.1 6.3-5.9 6.3zM134.4 63.1c-5.5 0-6-3.1-6-6 0-4.6 1.3-6.3 5.9-6.3 5.5 0 6 2.8 6 6 0 5-2.1 6.3-5.9 6.3zM148.7 63.1c-5.5 0-6-3.1-6-6 0-4.6 1.3-6.3 5.9-6.3 5.5 0 6 2.8 6 6 0 5-2 6.3-5.9 6.3z"/></svg>